<svg id="svg_hands" width="600" height="388" xmlns="http://www.w3.org/2000/svg" xmlns:svg="http://www.w3.org/2000/svg">
    <g class="shapes">
        <g id="function-dip">
            <ellipse cx="404.80498" cy="63.89751" id="svg_14" rx="4.8" ry="4.8" />
            <ellipse cx="468.00002" cy="49.59999" id="svg_15" rx="4.8" ry="4.8" />
            <ellipse cx="522.00001" cy="80.8" id="svg_16" rx="4.8" ry="4.8" />
            <ellipse cx="567.20001" cy="140.80994" id="svg_17" rx="4.8" ry="4.8" transform="matrix(1 0 0 1 0 0)" />
        </g>
        <g id="function-pip">
            <ellipse cx="410.40001" cy="102.2" id="svg_2" rx="7" ry="7" />
            <ellipse cx="460.00001" cy="96.8" id="svg_6" rx="7" ry="7" />
            <ellipse cx="505.20001" cy="118.79999" id="svg_5" rx="7" ry="7" />
            <ellipse cx="543.20001" cy="160.10746" id="svg_4" rx="7" ry="7" transform="matrix(1 0 0 1 0 0)" />
        </g>
        <g id="function-mcp">
            <ellipse cx="513.54627" cy="187.44875" id="svg_24" rx="6.46369" ry="6.46369" />
            <ellipse cx="485.29751" cy="164.0975" id="svg_25" rx="5.71741" ry="5.71741" />
            <ellipse cx="451.96615" cy="149.16616" id="svg_26" rx="5.96617" ry="5.96617" transform="matrix(1 0 0 1 0 0)" />
            <ellipse cx="416.99502" cy="148.22487" id="svg_27" rx="6.21492" ry="6.21492" transform="matrix(1 0 0 1 0 0)" />
        </g>
        <g id="function-palm">
            <path d="m45.66813,166.73291c0,-16.70266 -0.77321,-30.2318 5.24784,-30.2318c6.02105,0 5.24784,13.52914 5.24784,30.2318c0,16.70265 0.20563,31.47867 -5.24784,30.2318c-5.45347,-1.24688 -5.24784,-13.52915 -5.24784,-30.2318z" id="svg_7" transform="rotate(-25.6512 50.916 166.77)"/>
            <path d="m77.55473,156.27769c0,-7.17057 -0.81741,-12.97873 5.54783,-12.97873c6.36524,0 5.54783,5.80816 5.54783,12.97873c0,7.17057 0.21738,13.51401 -5.54783,12.97873c-5.76521,-0.53529 -5.54783,-5.80816 -5.54783,-12.97873z" fill="#0033ff" fill-opacity="0.35" id="svg_3" stroke="#0015ff" stroke-opacity="0.45" transform="rotate(-13.2029 83.1026 156.294)" />
        </g>
        <g id="function-dorsal-ring">
            <ellipse cx="499.52548" cy="180.55424" id="svg_13" rx="6.07808" ry="9.64575" transform="rotate(29.7449 499.525 180.554)" />
            <ellipse cx="473.63199" cy="159.26346" id="svg_18" rx="5.24188" ry="8.78945" transform="matrix(1 0 0 1 0 0) rotate(29.7448 473.632 159.263)" />
        </g>
        <g id="function-dorsal-thumb">
            <path d="m369.5,262.5l-21.75,-20l-14.16667,-13.16667c-9.73889,-8.36111 -15.63333,-12.08333 -17.83333,-14.58333c-2.2,-2.5 -8.75,-8 -8.75,-8c0,0 -2.22222,-3.77778 0.66667,-6.44444c2.88889,-2.66667 7.47223,-0.41666 9.25,2.25c1.77777,2.66666 27.5,23.16666 30.83333,26.94444c3.33333,3.77778 19.37778,18.14444 23.5,25.5c4.12222,7.35556 -0.65,9.1 -1.75,7.5z" id="svg_12" transform="matrix(1 0 0 1 0 0)" />
        </g>
    </g>
</svg>